# xmcd CD database file
#
# Track frame offsets:
#	150
#	14675
#	23125
#	35132
#	43435
#	57337
#	69532
#	79702
#	87625
#	99770
#	114097
#	124912
#	136572
#	146037
#	158755
#	168135
#	179982
#	193575
#	209372
#	222912
#	245775
#	265037
#	276570
#	288835
#	298185
#	320167
#
# Disc length: 4550 seconds
#
# Revision: 2
# Processed by: cddbd v1.4b41PL1 Copyright (c) Steve Scherf et al.
# Submitted via: Feurio! 1.52 - http://www.feurio.com
#
DISCID=9911c41a
DTITLE=The Graham Bond Organisation - The Sound Of ´65/There´s A Bond Between 
DTITLE=Us
DYEAR=1900
DGENRE=
TTITLE0=Hoochie Coochie Man
TTITLE1=Baby Make Love To Me
TTITLE2=Neighbour Neighbour
TTITLE3=Early In The Morning
TTITLE4=Spanish Blues
TTITLE5=On Baby
TTITLE6=Little Girl
TTITLE7=I Want You
TTITLE8=Wade In The Water
TTITLE9=Got My Mojo Working
TTITLE10=Train Time
TTITLE11=Baby Be Good To Me
TTITLE12=Half A Man
TTITLE13=Tammy
TTITLE14=Who´s Afraid Of Virginia Woolf?
TTITLE15=Her Me Calling Your Name
TTITLE16=The Night Time Is The Right Time
TTITLE17=Walkin´ In The Park
TTITLE18=Last Night
TTITLE19=Baby Can It Be True?
TTITLE20=What´d I Say?
TTITLE21=Dick´s Instrumental
TTITLE22=Don´t Let Go
TTITLE23=Keep A´Drivin´ 
TTITLE24=Have You Ever Loved A Woman?
TTITLE25=Camels And Elephants
EXTD=
EXTT0=
EXTT1=
EXTT2=
EXTT3=
EXTT4=
EXTT5=
EXTT6=
EXTT7=
EXTT8=
EXTT9=
EXTT10=
EXTT11=
EXTT12=
EXTT13=
EXTT14=
EXTT15=
EXTT16=
EXTT17=
EXTT18=
EXTT19=
EXTT20=
EXTT21=
EXTT22=
EXTT23=
EXTT24=
EXTT25=
PLAYORDER=
